<svg xmlns="http://www.w3.org/2000/svg" viewBox="0 0 490.67 100"><defs><style>.cls-1{fill:#f4752a;}.cls-2{fill:#fff;}.cls-3{fill:#13161d;fill-rule:evenodd;}</style></defs><g id="Layer_2" data-name="Layer 2"><g id="Layer_1-2" data-name="Layer 1"><circle class="cls-1" cx="50" cy="50" r="50"/><path class="cls-2" d="M64.63,56.73C62.84,51.25,57.89,43,57.89,43c-.54-.42-1-.77-1.5-1.06a7.12,7.12,0,0,0-1.5-.84,5,5,0,0,0-1.41-.44,7.62,7.62,0,0,0-6,1.32,4.82,4.82,0,0,0-1.1,1,7.64,7.64,0,0,0-1,1.39c-.3.46-.6,1-.92,1.59,0,0-1.1,9.52-.46,15.25a10.4,10.4,0,0,0,.22,1.64A10.71,10.71,0,0,0,65.1,58.32,11.69,11.69,0,0,0,64.63,56.73ZM56.17,67.18a5.66,5.66,0,1,1,4.34-6.73A5.65,5.65,0,0,1,56.17,67.18Z"/><path class="cls-2" d="M50.39,23.17h-.17a5.78,5.78,0,0,0,0,11.56h.17a5.79,5.79,0,1,0,0-11.57Z"/><path class="cls-2" d="M50.39,5.79h-.17a5.78,5.78,0,0,0,0,11.56h.17a5.79,5.79,0,0,0,0-11.58Z"/><path class="cls-3" d="M488.13,62.33a17.85,17.85,0,0,1-7.23,7.45,21.7,21.7,0,0,1-10.74,2.61H457.27V27.61h13.22A20.8,20.8,0,0,1,481,30.25a18.11,18.11,0,0,1,7.12,7.51,23.83,23.83,0,0,1,2.52,11.13v2.25A23.74,23.74,0,0,1,488.13,62.33Zm-5.27-13.47q0-7.29-3.17-11.13t-9.2-3.85h-5.44v32.3h5.07q6.12,0,9.4-3.83t3.34-11ZM411.92,27.61H441v6.27H419.7V46.25h18.39V52.4H419.7V66.18h21.5v6.21H411.92Zm-46.39,13V72.39h-7.78V27.61h7.78l20,31.89V27.61h7.72V72.39h-7.78Zm-54.17,0V72.39h-7.78V27.61h7.78l20,31.89V27.61h7.72V72.39h-7.78ZM277,27.61h7.75V72.39H277ZM253.69,72.39,240.22,53l-5.08,5.39v14h-7.78V27.61h7.78v21l4.31-5.32,13.1-15.69H262L245.32,47.45l17.59,24.94Zm-56.9-25.7a35.07,35.07,0,0,1,8.4,3.54,13.31,13.31,0,0,1,4.64,4.55,11.91,11.91,0,0,1,1.48,6A10.65,10.65,0,0,1,207,69.7Q202.72,73,195.37,73a21.86,21.86,0,0,1-8.93-1.8,15,15,0,0,1-6.34-5,12.42,12.42,0,0,1-2.26-7.38h7.78a7.21,7.21,0,0,0,2.53,5.9c1.68,1.4,4.09,2.09,7.22,2.09,2.71,0,4.74-.54,6.11-1.64a5.32,5.32,0,0,0,2-4.35,5.43,5.43,0,0,0-2.07-4.56A25.07,25.07,0,0,0,194,53.08a36.33,36.33,0,0,1-8.61-3.63q-6.12-3.86-6.12-10a10.92,10.92,0,0,1,4.41-8.92Q188.05,27,195.1,27a19.33,19.33,0,0,1,8.33,1.73,13.67,13.67,0,0,1,5.75,4.9,12.54,12.54,0,0,1,2.09,7.06h-7.75a7,7,0,0,0-2.19-5.49,9.11,9.11,0,0,0-6.29-2,9.48,9.48,0,0,0-5.93,1.63,5.42,5.42,0,0,0-2.1,4.55,4.93,4.93,0,0,0,2.27,4.11A26.32,26.32,0,0,0,196.79,46.69ZM145.75,73q-7.68,0-12.21-4.11T129,57.5V27.61h7.75v30c0,3,.76,5.28,2.28,6.85s3.75,2.37,6.7,2.37q9,0,9-9.47V27.61h7.75V57.54q0,7.12-4.56,11.3T145.75,73Z"/></g></g></svg>